<svg width="438" height="188" viewBox="0 0 438 188" fill="none" xmlns="http://www.w3.org/2000/svg">
<style>
  @keyframes drawStroke {
    from {
      stroke-dashoffset: 3000;
    }
    to {
      stroke-dashoffset: 0;
    }
  }
  path:nth-child(1) {
    fill: #F9E5AD;
    stroke: #F9E5AD;
    stroke-width: 2;
    stroke-linecap: round;
    stroke-linejoin: round;
    stroke-dasharray: 3000;
    animation: drawStroke 3s ease-out forwards;
  }
  path:nth-child(2) {
    fill: #E4703E;
    stroke: #E4703E;
    stroke-width: 2;
    stroke-linecap: round;
    stroke-linejoin: round;
    stroke-dasharray: 3000;
    animation: drawStroke 3s ease-out forwards;
  }
</style>
<path d="M123.599 5.56804C129.423 6.68804 136.367 9.15205 136.815 15.872C137.487 25.056 129.647 34.464 124.271 40.96C122.031 43.4241 111.951 38.2721 112.399 37.824C117.327 32.0001 128.303 19.232 124.495 10.496C124.271 10.2721 124.047 9.82404 123.823 9.60005C122.479 9.60005 120.687 9.82404 120.239 9.82404C114.191 11.392 108.591 14.528 103.215 17.4401C79.695 30.208 60.431 47.68 42.959 67.616C33.775 78.1441 15.855 103.008 33.327 113.536C38.703 116.896 45.423 118.464 51.471 119.584C59.535 121.376 67.599 122.496 75.663 124.064C78.351 124.512 81.039 124.96 83.727 125.632C87.983 121.152 92.463 116.672 97.167 112.64C99.183 110.624 109.487 115.328 108.367 116.224C104.111 120.032 99.855 124.288 95.599 128.544C96.719 128.768 97.615 128.992 98.735 129.44C104.111 131.232 110.383 133.472 114.415 137.952C122.479 146.688 112.399 158.112 105.679 164.16C90.895 177.6 69.839 184.992 50.127 187.008C46.767 187.456 37.359 187.232 36.463 182.752C36.015 179.84 39.823 175.584 41.391 173.568C49.903 161.472 60.207 150.496 70.287 139.744C74.095 135.712 77.679 131.904 81.263 128.096C78.351 127.424 75.215 126.976 72.303 126.528C56.847 123.84 40.047 121.824 25.711 114.432C20.111 111.296 14.735 107.264 14.063 100.32C13.167 91.1361 18.767 81.2801 23.919 73.888C29.743 65.376 37.135 57.7601 44.527 50.144C52.143 42.3041 60.431 34.688 69.391 27.9681C79.023 21.024 89.327 14.752 99.855 9.82404C107.471 6.24005 115.311 4.00005 123.599 5.56804ZM94.031 131.008C93.807 131.008 93.583 131.008 93.359 130.784C87.759 136.608 82.159 142.656 76.783 148.704C70.735 155.2 64.911 161.696 59.535 168.416C56.175 172.448 52.367 176.704 50.127 181.408C51.695 181.184 53.487 180.736 55.279 180.288C65.583 177.6 75.887 173.568 84.847 167.744C92.463 162.816 109.039 150.72 105.007 139.52C103.439 134.816 98.287 132.352 94.031 131.008ZM203.852 135.04C205.644 132.128 214.828 137.952 213.932 139.52C206.988 150.496 196.236 160.352 182.124 158.56C176.3 157.888 169.132 154.976 166.22 149.824C161.74 154.528 155.916 162.368 150.316 165.504C144.044 168.864 138.668 169.76 132.172 166.4C127.468 163.936 124.78 157.44 124.332 151.84C123.66 139.52 131.052 126.304 139.788 118.016C149.42 109.28 163.084 109.056 173.388 116.896C179.212 121.6 178.54 126.976 175.628 132.128C172.044 138.4 170.7 155.2 181.676 152.288C191.084 149.824 198.924 143.104 203.852 135.04ZM135.98 161.92C144.716 160.128 152.108 150.944 157.484 142.432C154.796 140.864 153.004 139.072 153.9 138.4C158.38 135.04 162.86 130.784 165.324 125.632C166.668 123.168 167.788 120.032 166.444 118.24C165.1 116.896 161.292 117.792 159.724 118.464C149.42 122.048 142.7 133.024 138.892 142.88C136.876 147.808 135.308 156.544 135.98 161.92ZM294.618 135.04C297.082 135.712 296.634 136.832 294.842 137.952C292.602 139.52 288.794 139.52 286.33 138.848C278.266 137.056 270.202 136.16 262.362 136.832C257.434 144.448 250.938 151.392 243.994 157.44C236.602 164.384 227.642 170.432 217.562 172.224C211.514 173.344 201.434 172 201.21 166.4C197.402 167.296 192.25 166.624 192.922 164.608C196.954 153.632 200.762 142.432 204.346 131.232C213.082 105.472 221.37 79.2641 228.762 53.056C231.674 43.2001 234.362 33.1201 236.602 22.816C237.05 20.128 237.722 17.216 237.946 14.3041C237.946 14.08 238.17 13.4081 237.722 13.4081C236.378 12.736 234.81 12.512 235.706 11.616C238.394 8.70404 248.026 6.68804 250.938 9.82404C252.506 11.392 251.834 14.3041 251.61 16.3201C250.266 25.952 247.354 35.808 244.666 45.2161C240.858 59.328 236.602 73.4401 232.346 87.3281C227.642 102.336 222.938 117.344 217.786 132.352C224.506 125.632 232.122 118.912 240.858 115.328C247.802 112.192 258.106 110.624 264.378 116.224C269.306 120.48 267.514 126.976 265.05 132.128C274.906 131.68 284.986 132.8 294.618 135.04ZM235.706 126.976C227.866 133.696 220.026 141.984 213.978 150.944C216.666 148.704 219.354 146.912 222.042 145.12C231.45 139.072 241.978 135.264 252.73 133.248C253.626 131.904 254.074 130.336 254.746 128.768C255.418 126.304 255.866 123.392 254.746 120.928C253.85 118.912 251.386 116.672 248.922 117.792C247.354 118.464 245.786 119.36 244.218 120.256C241.306 122.272 238.394 124.512 235.706 126.976ZM227.418 161.472C235.034 155.648 243.77 147.808 249.594 138.848C241.754 140.864 234.138 144.672 227.194 150.272C222.938 153.632 216.89 158.336 215.322 163.936C214.874 165.504 215.098 168.192 217.114 167.52C220.698 165.952 224.282 163.712 227.418 161.472ZM356.356 134.144C359.492 130.112 367.556 136.832 363.972 141.088C360.612 145.12 355.908 148.704 351.204 150.72C344.484 153.408 337.764 153.856 330.82 152.064C329.028 155.424 327.012 158.336 324.548 160.8C319.62 165.952 312.004 168.864 304.836 167.968C296.548 167.072 286.692 163.936 285.796 154.528C284.676 144.896 288.932 133.024 294.308 125.184C300.356 116.448 310.436 113.088 320.516 114.208C320.964 113.984 321.188 113.76 321.636 113.76C324.548 112.864 327.684 113.984 330.372 114.656C332.836 115.552 336.42 116.224 337.764 118.688C339.78 122.496 338.436 128.768 337.764 132.8C336.644 138.176 334.852 143.776 332.388 149.152C338.436 150.048 351.876 140.192 356.356 134.144ZM324.324 128.544C323.652 131.008 323.652 133.92 323.876 136.832C324.996 133.92 325.668 131.008 326.116 127.872C326.34 126.752 326.788 124.736 327.012 122.72C325.668 124.512 324.772 126.304 324.324 128.544ZM307.972 161.248C313.124 158.112 316.932 152.96 319.62 147.584C316.932 145.792 314.916 143.328 313.572 139.968C312.004 135.712 311.556 130.56 312.228 126.08C312.676 124.512 313.124 122.944 314.02 121.152C313.124 121.824 312.228 122.272 311.556 122.944C307.524 126.08 304.612 130.56 302.596 135.264C299.012 142.656 293.86 156.768 299.908 164.16C302.82 163.712 305.508 162.592 307.972 161.248ZM423.117 132.128C426.029 129.44 432.301 137.504 430.733 139.072C424.013 146.688 404.301 150.72 395.789 143.776C392.205 140.864 391.981 138.848 393.101 134.368C396.013 124.064 396.237 116.224 396.461 115.552C384.589 120.928 362.637 151.84 357.485 173.344C357.485 173.792 348.301 169.312 348.301 165.28C348.301 161.024 349.869 156.544 350.765 152.512C352.557 145.568 354.573 138.624 356.365 131.68C358.157 124.96 361.965 110.848 363.533 104.128C364.205 101.216 364.429 99.8721 364.877 96.96C365.101 94.944 363.981 93.824 364.205 93.6001C366.221 91.808 377.197 96.0641 376.301 102.784C375.405 110.4 373.389 117.792 370.701 125.184C372.493 121.152 388.845 103.68 393.997 101.888C396.237 101.216 403.181 105.248 405.645 109.056C407.661 112.416 404.077 135.488 402.509 141.984C404.749 141.312 406.989 140.192 408.557 139.744C413.485 137.952 419.309 135.488 423.117 132.128Z"/>
<path d="M117.599 1.56804C123.423 2.68804 130.367 5.15205 130.815 11.872C131.487 21.056 123.647 30.464 118.271 36.96C116.031 39.4241 105.951 34.2721 106.399 33.824C111.327 28.0001 122.303 15.232 118.495 6.49605C118.271 6.27205 118.047 5.82404 117.823 5.60005C116.479 5.60005 114.687 5.82404 114.239 5.82404C108.191 7.39205 102.591 10.528 97.215 13.4401C73.695 26.208 54.431 43.68 36.959 63.616C27.775 74.1441 9.855 99.0081 27.327 109.536C32.703 112.896 39.423 114.464 45.471 115.584C53.535 117.376 61.599 118.496 69.663 120.064C72.351 120.512 75.039 120.96 77.727 121.632C81.983 117.152 86.463 112.672 91.167 108.64C93.183 106.624 103.487 111.328 102.367 112.224C98.111 116.032 93.855 120.288 89.599 124.544C90.719 124.768 91.615 124.992 92.735 125.44C98.111 127.232 104.383 129.472 108.415 133.952C116.479 142.688 106.399 154.112 99.679 160.16C84.895 173.6 63.839 180.992 44.127 183.008C40.767 183.456 31.359 183.232 30.463 178.752C30.015 175.84 33.823 171.584 35.391 169.568C43.903 157.472 54.207 146.496 64.287 135.744C68.095 131.712 71.679 127.904 75.263 124.096C72.351 123.424 69.215 122.976 66.303 122.528C50.847 119.84 34.047 117.824 19.711 110.432C14.111 107.296 8.735 103.264 8.063 96.3201C7.167 87.1361 12.767 77.2801 17.919 69.888C23.743 61.376 31.135 53.7601 38.527 46.144C46.143 38.3041 54.431 30.688 63.391 23.9681C73.023 17.024 83.327 10.752 93.855 5.82404C101.471 2.24005 109.311 5.14984e-05 117.599 1.56804ZM88.031 127.008C87.807 127.008 87.583 127.008 87.359 126.784C81.759 132.608 76.159 138.656 70.783 144.704C64.735 151.2 58.911 157.696 53.535 164.416C50.175 168.448 46.367 172.704 44.127 177.408C45.695 177.184 47.487 176.736 49.279 176.288C59.583 173.6 69.887 169.568 78.847 163.744C86.463 158.816 103.039 146.72 99.007 135.52C97.439 130.816 92.287 128.352 88.031 127.008ZM197.852 131.04C199.644 128.128 208.828 133.952 207.932 135.52C200.988 146.496 190.236 156.352 176.124 154.56C170.3 153.888 163.132 150.976 160.22 145.824C155.74 150.528 149.916 158.368 144.316 161.504C138.044 164.864 132.668 165.76 126.172 162.4C121.468 159.936 118.78 153.44 118.332 147.84C117.66 135.52 125.052 122.304 133.788 114.016C143.42 105.28 157.084 105.056 167.388 112.896C173.212 117.6 172.54 122.976 169.628 128.128C166.044 134.4 164.7 151.2 175.676 148.288C185.084 145.824 192.924 139.104 197.852 131.04ZM129.98 157.92C138.716 156.128 146.108 146.944 151.484 138.432C148.796 136.864 147.004 135.072 147.9 134.4C152.38 131.04 156.86 126.784 159.324 121.632C160.668 119.168 161.788 116.032 160.444 114.24C159.1 112.896 155.292 113.792 153.724 114.464C143.42 118.048 136.7 129.024 132.892 138.88C130.876 143.808 129.308 152.544 129.98 157.92ZM288.618 131.04C291.082 131.712 290.634 132.832 288.842 133.952C286.602 135.52 282.794 135.52 280.33 134.848C272.266 133.056 264.202 132.16 256.362 132.832C251.434 140.448 244.938 147.392 237.994 153.44C230.602 160.384 221.642 166.432 211.562 168.224C205.514 169.344 195.434 168 195.21 162.4C191.402 163.296 186.25 162.624 186.922 160.608C190.954 149.632 194.762 138.432 198.346 127.232C207.082 101.472 215.37 75.2641 222.762 49.056C225.674 39.2001 228.362 29.1201 230.602 18.816C231.05 16.128 231.722 13.216 231.946 10.3041C231.946 10.08 232.17 9.40805 231.722 9.40805C230.378 8.73605 228.81 8.51205 229.706 7.61605C232.394 4.70404 242.026 2.68804 244.938 5.82404C246.506 7.39205 245.834 10.3041 245.61 12.3201C244.266 21.952 241.354 31.808 238.666 41.2161C234.858 55.328 230.602 69.4401 226.346 83.3281C221.642 98.3361 216.938 113.344 211.786 128.352C218.506 121.632 226.122 114.912 234.858 111.328C241.802 108.192 252.106 106.624 258.378 112.224C263.306 116.48 261.514 122.976 259.05 128.128C268.906 127.68 278.986 128.8 288.618 131.04ZM229.706 122.976C221.866 129.696 214.026 137.984 207.978 146.944C210.666 144.704 213.354 142.912 216.042 141.12C225.45 135.072 235.978 131.264 246.73 129.248C247.626 127.904 248.074 126.336 248.746 124.768C249.418 122.304 249.866 119.392 248.746 116.928C247.85 114.912 245.386 112.672 242.922 113.792C241.354 114.464 239.786 115.36 238.218 116.256C235.306 118.272 232.394 120.512 229.706 122.976ZM221.418 157.472C229.034 151.648 237.77 143.808 243.594 134.848C235.754 136.864 228.138 140.672 221.194 146.272C216.938 149.632 210.89 154.336 209.322 159.936C208.874 161.504 209.098 164.192 211.114 163.52C214.698 161.952 218.282 159.712 221.418 157.472ZM350.356 130.144C353.492 126.112 361.556 132.832 357.972 137.088C354.612 141.12 349.908 144.704 345.204 146.72C338.484 149.408 331.764 149.856 324.82 148.064C323.028 151.424C321.012 154.336 318.548 156.8C313.62 161.952 306.004 164.864 298.836 163.968C290.548 163.072 280.692 159.936 279.796 150.528C278.676 140.896 282.932 129.024 288.308 121.184C294.356 112.448 304.436 109.088 314.516 110.208C314.964 109.984 315.188 109.76 315.636 109.76C318.548 108.864 321.684 109.984 324.372 110.656C326.836 111.552 330.42 112.224 331.764 114.688C333.78 118.496 332.436 124.768 331.764 128.8C330.644 134.176 328.852 139.776 326.388 145.152C332.436 146.048 345.876 136.192 350.356 130.144ZM318.324 124.544C317.652 127.008 317.652 129.92 317.876 132.832C318.996 129.92 319.668 127.008 320.116 123.872C320.34 122.752 320.788 120.736 321.012 118.72C319.668 120.512 318.772 122.304 318.324 124.544ZM301.972 157.248C307.124 154.112 310.932 148.96 313.62 143.584C310.932 141.792 308.916 139.328 307.572 135.968C306.004 131.712 305.556 126.56 306.228 122.08C306.676 120.512 307.124 118.944 308.02 117.152C307.124 117.824 306.228 118.272 305.556 118.944C301.524 122.08 298.612 126.56 296.596 131.264C293.012 138.656 287.86 152.768 293.908 160.16C296.82 159.712 299.508 158.592 301.972 157.248ZM417.117 128.128C420.029 125.44 426.301 133.504 424.733 135.072C418.013 142.688 398.301 146.72 389.789 139.776C386.205 136.864 385.981 134.848 387.101 130.368C390.013 120.064 390.237 112.224 390.461 111.552C378.589 116.928 356.637 147.84 351.485 169.344C351.485 169.792 342.301 165.312 342.301 161.28C342.301 157.024 343.869 152.544 344.765 148.512C346.557 141.568 348.573 134.624 350.365 127.68C352.157 120.96 355.965 106.848 357.533 100.128C358.205 97.2161 358.429 95.8721 358.877 92.96C359.101 90.944 357.981 89.824 358.205 89.6001C360.221 87.808 371.197 92.0641 370.301 98.7841C369.405 106.4 367.389 113.792 364.701 121.184C366.493 117.152 382.845 99.68 387.997 97.8881C390.237 97.2161 397.181 101.248 399.645 105.056C401.661 108.416 398.077 131.488 396.509 137.984C398.749 137.312 400.989 136.192 402.557 135.744C407.485 133.952 413.309 131.488 417.117 128.128Z"/>
</svg>