<svg width="428" height="187" viewBox="0 0 428 187" fill="none" xmlns="http://www.w3.org/2000/svg">
<mask id="path-1-outside-1_4123_6568" maskUnits="userSpaceOnUse" x="0" y="0.00012207" width="428" height="187" fill="black">
<rect fill="white" y="0.00012207" width="428" height="187"/>
<path d="M118.631 1.50835C124.455 2.62834 131.399 5.09235 131.847 11.8123C132.519 20.9963 124.679 30.4043 119.303 36.9003C117.063 39.3644 106.983 34.2124 107.431 33.7643C112.359 27.9404 123.335 15.1723 119.527 6.43635C119.303 6.21235 119.079 5.76434 118.855 5.54035C117.511 5.54035 115.719 5.76434 115.271 5.76434C109.223 7.33235 103.623 10.4684 98.2471 13.3804C74.7271 26.1483 55.4631 43.6203 37.9911 63.5563C28.8071 74.0844 10.8871 98.9484 28.3591 109.476C33.7351 112.836 40.4551 114.404 46.5031 115.524C54.5671 117.316 62.6311 118.436 70.6951 120.004C73.3831 120.452 76.0711 120.9 78.7591 121.572C83.0151 117.092 87.4951 112.612 92.1991 108.58C94.2151 106.564 104.519 111.268 103.399 112.164C99.1431 115.972 94.8871 120.228 90.6311 124.484C91.7511 124.708 92.6471 124.932 93.7671 125.38C99.1431 127.172 105.415 129.412 109.447 133.892C117.511 142.628 107.431 154.052 100.711 160.1C85.9271 173.54 64.8711 180.932 45.1591 182.948C41.7991 183.396 32.3911 183.172 31.4951 178.692C31.0471 175.78 34.8551 171.524 36.4231 169.508C44.9351 157.412 55.2391 146.436 65.3191 135.684C69.1271 131.652 72.7111 127.844 76.2951 124.036C73.3831 123.364 70.2471 122.916 67.3351 122.468C51.8791 119.78 35.0791 117.764 20.7431 110.372C15.1431 107.236 9.7671 103.204 9.0951 96.2604C8.1991 87.0764 13.7991 77.2204 18.9511 69.8283C24.7751 61.3163 32.1671 53.7004 39.5591 46.0843C47.1751 38.2444 55.4631 30.6283 64.4231 23.9083C74.0551 16.9643 84.3591 10.6923 94.8871 5.76434C102.503 2.18035 110.343 -0.0596477 118.631 1.50835ZM89.0631 126.948C88.8391 126.948 88.6151 126.948 88.3911 126.724C82.7911 132.548 77.1911 138.596 71.8151 144.644C65.7671 151.14 59.9431 157.636 54.5671 164.356C51.2071 168.388 47.3991 172.644 45.1591 177.348C46.7271 177.124 48.5191 176.676 50.3111 176.228C60.6151 173.54 70.9191 169.508 79.8791 163.684C87.4951 158.756 104.071 146.66 100.039 135.46C98.4711 130.756 93.3191 128.292 89.0631 126.948Z"/>
<path d="M198.884 130.98C200.676 128.068 209.86 133.892 208.964 135.46C202.02 146.436 191.268 156.292 177.156 154.5C171.332 153.828 164.164 150.916 161.252 145.764C156.772 150.468 150.948 158.308 145.348 161.444C139.076 164.804 133.7 165.7 127.204 162.34C122.5 159.876 119.812 153.38 119.364 147.78C118.692 135.46 126.084 122.244 134.82 113.956C144.452 105.22 158.116 104.996 168.42 112.836C174.244 117.54 173.572 122.916 170.66 128.068C167.076 134.34 165.732 151.14 176.708 148.228C186.116 145.764 193.956 139.044 198.884 130.98ZM131.012 157.86C139.748 156.068 147.14 146.884 152.516 138.372C149.828 136.804 148.036 135.012 148.932 134.34C153.412 130.98 157.892 126.724 160.356 121.572C161.7 119.108 162.82 115.972 161.476 114.18C160.132 112.836 156.324 113.732 154.756 114.404C144.452 117.988 137.732 128.964 133.924 138.82C131.908 143.748 130.34 152.484 131.012 157.86Z"/>
<path d="M289.65 130.98C292.114 131.652 291.666 132.772 289.874 133.892C287.634 135.46 283.826 135.46 281.362 134.788C273.298 132.996 265.234 132.1 257.394 132.772C252.466 140.388 245.97 147.332 239.026 153.38C231.634 160.324 222.674 166.372 212.594 168.164C206.546 169.284 196.466 167.94 196.242 162.34C192.434 163.236 187.282 162.564 187.954 160.548C191.986 149.572 195.794 138.372 199.378 127.172C208.114 101.412 216.402 75.2044 223.794 48.9963C226.706 39.1404 229.394 29.0604 231.634 18.7563C232.082 16.0683 232.754 13.1563 232.978 10.2444C232.978 10.0203 233.202 9.34835 232.754 9.34835C231.41 8.67635 229.842 8.45235 230.738 7.55635C233.426 4.64435 243.058 2.62834 245.97 5.76434C247.538 7.33235 246.866 10.2444 246.642 12.2604C245.298 21.8924 242.386 31.7483 239.698 41.1564C235.89 55.2683 231.634 69.3804 227.378 83.2684C222.674 98.2764 217.97 113.284 212.818 128.292C219.538 121.572 227.154 114.852 235.89 111.268C242.834 108.132 253.138 106.564 259.41 112.164C264.338 116.42 262.546 122.916 260.082 128.068C269.938 127.62 280.018 128.74 289.65 130.98ZM230.738 122.916C222.898 129.636 215.058 137.924 209.01 146.884C211.698 144.644 214.386 142.852 217.074 141.06C226.482 135.012 237.01 131.204 247.762 129.188C248.658 127.844 249.106 126.276 249.778 124.708C250.45 122.244 250.898 119.332 249.778 116.868C248.882 114.852 246.418 112.612 243.954 113.732C242.386 114.404 240.818 115.3 239.25 116.196C236.338 118.212 233.426 120.452 230.738 122.916ZM222.45 157.412C230.066 151.588 238.802 143.748 244.626 134.788C236.786 136.804 229.17 140.612 222.226 146.212C217.97 149.572 211.922 154.276 210.354 159.876C209.906 161.444 210.13 164.132 212.146 163.46C215.73 161.892 219.314 159.652 222.45 157.412Z"/>
<path d="M351.388 130.084C354.524 126.052 362.588 132.772 359.004 137.028C355.644 141.06 350.94 144.644 346.236 146.66C339.516 149.348 332.796 149.796 325.852 148.004C324.06 151.364 322.044 154.276 319.58 156.74C314.652 161.892 307.036 164.804 299.868 163.908C291.58 163.012 281.724 159.876 280.828 150.468C279.708 140.836 283.964 128.964 289.34 121.124C295.388 112.388 305.468 109.028 315.548 110.148C315.996 109.924 316.22 109.7 316.668 109.7C319.58 108.804 322.716 109.924 325.404 110.596C327.868 111.492 331.452 112.164 332.796 114.628C334.812 118.436 333.468 124.708 332.796 128.74C331.676 134.116 329.884 139.716 327.42 145.092C333.468 145.988 346.908 136.132 351.388 130.084ZM319.356 124.484C318.684 126.948 318.684 129.86 318.908 132.772C320.028 129.86 320.7 126.948 321.148 123.812C321.372 122.692 321.82 120.676 322.044 118.66C320.7 120.452 319.804 122.244 319.356 124.484ZM303.004 157.188C308.156 154.052 311.964 148.9 314.652 143.524C311.964 141.732 309.948 139.268 308.604 135.908C307.036 131.652 306.588 126.5 307.26 122.02C307.708 120.452 308.156 118.884 309.052 117.092C308.156 117.764 307.26 118.212 306.588 118.884C302.556 122.02 299.644 126.5 297.628 131.204C294.044 138.596 288.892 152.708 294.94 160.1C297.852 159.652 300.54 158.532 303.004 157.188Z"/>
<path d="M418.149 128.068C421.061 125.38 427.333 133.444 425.765 135.012C419.045 142.628 399.333 146.66 390.821 139.716C387.237 136.804 387.013 134.788 388.133 130.308C391.045 120.004 391.269 112.164 391.493 111.492C379.621 116.868 357.669 147.78 352.517 169.284C352.517 169.732 343.333 165.252 343.333 161.22C343.333 156.964 344.901 152.484 345.797 148.452C347.589 141.508 349.605 134.564 351.397 127.62C353.189 120.9 356.997 106.788 358.565 100.068C359.237 97.1564 359.461 95.8124 359.909 92.9004C360.133 90.8844 359.013 89.7643 359.237 89.5404C361.253 87.7483 372.229 92.0044 371.333 98.7244C370.437 106.34 368.421 113.732 365.733 121.124C367.525 117.092 383.877 99.6204 389.029 97.8284C391.269 97.1564 398.213 101.188 400.677 104.996C402.693 108.356 399.109 131.428 397.541 137.924C399.781 137.252 402.021 136.132 403.589 135.684C408.517 133.892 414.341 131.428 418.149 128.068Z"/>
<path d="M110.631 3.50835C116.455 4.62834 123.399 7.09235 123.847 13.8123C124.519 22.9963 116.679 32.4043 111.303 38.9003C109.063 41.3644 98.9831 36.2124 99.4311 35.7643C104.359 29.9404 115.335 17.1723 111.527 8.43635C111.303 8.21235 111.079 7.76434 110.855 7.54035C109.511 7.54035 107.719 7.76434 107.271 7.76434C101.223 9.33235 95.6231 12.4684 90.2471 15.3804C66.7271 28.1483 47.4631 45.6203 29.9911 65.5563C20.8071 76.0843 2.8871 100.948 20.3591 111.476C25.7351 114.836 32.4551 116.404 38.5031 117.524C46.5671 119.316 54.6311 120.436 62.6951 122.004C65.3831 122.452 68.0711 122.9 70.7591 123.572C75.0151 119.092 79.4951 114.612 84.1991 110.58C86.2151 108.564 96.5191 113.268 95.3991 114.164C91.1431 117.972 86.8871 122.228 82.6311 126.484C83.7511 126.708 84.6471 126.932 85.7671 127.38C91.1431 129.172 97.4151 131.412 101.447 135.892C109.511 144.628 99.4311 156.052 92.7111 162.1C77.9271 175.54 56.8711 182.932 37.1591 184.948C33.7991 185.396 24.3911 185.172 23.4951 180.692C23.0471 177.78 26.8551 173.524 28.4231 171.508C36.9351 159.412 47.2391 148.436 57.3191 137.684C61.1271 133.652 64.7111 129.844 68.2951 126.036C65.3831 125.364 62.2471 124.916 59.3351 124.468C43.8791 121.78 27.0791 119.764 12.7431 112.372C7.1431 109.236 1.7671 105.204 1.0951 98.2604C0.199103 89.0764 5.7991 79.2204 10.9511 71.8283C16.7751 63.3163 24.1671 55.7004 31.5591 48.0843C39.1751 40.2444 47.4631 32.6283 56.4231 25.9083C66.0551 18.9643 76.3591 12.6923 86.8871 7.76434C94.5031 4.18035 102.343 1.94035 110.631 3.50835ZM81.0631 128.948C80.8391 128.948 80.6151 128.948 80.3911 128.724C74.7911 134.548 69.1911 140.596 63.8151 146.644C57.7671 153.14 51.9431 159.636 46.5671 166.356C43.2071 170.388 39.3991 174.644 37.1591 179.348C38.7271 179.124 40.5191 178.676 42.3111 178.228C52.6151 175.54 62.9191 171.508 71.8791 165.684C79.4951 160.756 96.0711 148.66 92.0391 137.46C90.4711 132.756 85.3191 130.292 81.0631 128.948Z"/>
<path d="M190.884 132.98C192.676 130.068 201.86 135.892 200.964 137.46C194.02 148.436 183.268 158.292 169.156 156.5C163.332 155.828 156.164 152.916 153.252 147.764C148.772 152.468 142.948 160.308 137.348 163.444C131.076 166.804 125.7 167.7 119.204 164.34C114.5 161.876 111.812 155.38 111.364 149.78C110.692 137.46 118.084 124.244 126.82 115.956C136.452 107.22 150.116 106.996 160.42 114.836C166.244 119.54 165.572 124.916 162.66 130.068C159.076 136.34 157.732 153.14 168.708 150.228C178.116 147.764 185.956 141.044 190.884 132.98ZM123.012 159.86C131.748 158.068 139.14 148.884 144.516 140.372C141.828 138.804 140.036 137.012 140.932 136.34C145.412 132.98 149.892 128.724 152.356 123.572C153.7 121.108 154.82 117.972 153.476 116.18C152.132 114.836 148.324 115.732 146.756 116.404C136.452 119.988 129.732 130.964 125.924 140.82C123.908 145.748 122.34 154.484 123.012 159.86Z"/>
<path d="M281.65 132.98C284.114 133.652 283.666 134.772 281.874 135.892C279.634 137.46 275.826 137.46 273.362 136.788C265.298 134.996 257.234 134.1 249.394 134.772C244.466 142.388 237.97 149.332 231.026 155.38C223.634 162.324 214.674 168.372 204.594 170.164C198.546 171.284 188.466 169.94 188.242 164.34C184.434 165.236 179.282 164.564 179.954 162.548C183.986 151.572 187.794 140.372 191.378 129.172C200.114 103.412 208.402 77.2044 215.794 50.9963C218.706 41.1404 221.394 31.0604 223.634 20.7563C224.082 18.0683 224.754 15.1563 224.978 12.2444C224.978 12.0203 225.202 11.3484 224.754 11.3484C223.41 10.6763 221.842 10.4523 222.738 9.55635C225.426 6.64435 235.058 4.62834 237.97 7.76434C239.538 9.33235 238.866 12.2444 238.642 14.2604C237.298 23.8924 234.386 33.7483 231.698 43.1564C227.89 57.2683 223.634 71.3804 219.378 85.2684C214.674 100.276 209.97 115.284 204.818 130.292C211.538 123.572 219.154 116.852 227.89 113.268C234.834 110.132 245.138 108.564 251.41 114.164C256.338 118.42 254.546 124.916 252.082 130.068C261.938 129.62 272.018 130.74 281.65 132.98ZM222.738 124.916C214.898 131.636 207.058 139.924 201.01 148.884C203.698 146.644 206.386 144.852 209.074 143.06C218.482 137.012 229.01 133.204 239.762 131.188C240.658 129.844 241.106 128.276 241.778 126.708C242.45 124.244 242.898 121.332 241.778 118.868C240.882 116.852 238.418 114.612 235.954 115.732C234.386 116.404 232.818 117.3 231.25 118.196C228.338 120.212 225.426 122.452 222.738 124.916ZM214.45 159.412C222.066 153.588 230.802 145.748 236.626 136.788C228.786 138.804 221.17 142.612 214.226 148.212C209.97 151.572 203.922 156.276 202.354 161.876C201.906 163.444 202.13 166.132 204.146 165.46C207.73 163.892 211.314 161.652 214.45 159.412Z"/>
<path d="M343.388 132.084C346.524 128.052 354.588 134.772 351.004 139.028C347.644 143.06 342.94 146.644 338.236 148.66C331.516 151.348 324.796 151.796 317.852 150.004C316.06 153.364 314.044 156.276 311.58 158.74C306.652 163.892 299.036 166.804 291.868 165.908C283.58 165.012 273.724 161.876 272.828 152.468C271.708 142.836 275.964 130.964 281.34 123.124C287.388 114.388 297.468 111.028 307.548 112.148C307.996 111.924 308.22 111.7 308.668 111.7C311.58 110.804 314.716 111.924 317.404 112.596C319.868 113.492 323.452 114.164 324.796 116.628C326.812 120.436 325.468 126.708 324.796 130.74C323.676 136.116 321.884 141.716 319.42 147.092C325.468 147.988 338.908 138.132 343.388 132.084ZM311.356 126.484C310.684 128.948 310.684 131.86 310.908 134.772C312.028 131.86 312.7 128.948 313.148 125.812C313.372 124.692 313.82 122.676 314.044 120.66C312.7 122.452 311.804 124.244 311.356 126.484ZM295.004 159.188C300.156 156.052 303.964 150.9 306.652 145.524C303.964 143.732 301.948 141.268 300.604 137.908C299.036 133.652 298.588 128.5 299.26 124.02C299.708 122.452 300.156 120.884 301.052 119.092C300.156 119.764 299.26 120.212 298.588 120.884C294.556 124.02 291.644 128.5 289.628 133.204C286.044 140.596 280.892 154.708 286.94 162.1C289.852 161.652 292.54 160.532 295.004 159.188Z"/>
<path d="M410.149 130.068C413.061 127.38 419.333 135.444 417.765 137.012C411.045 144.628 391.333 148.66 382.821 141.716C379.237 138.804 379.013 136.788 380.133 132.308C383.045 122.004 383.269 114.164 383.493 113.492C371.621 118.868 349.669 149.78 344.517 171.284C344.517 171.732 335.333 167.252 335.333 163.22C335.333 158.964 336.901 154.484 337.797 150.452C339.589 143.508 341.605 136.564 343.397 129.62C345.189 122.9 348.997 108.788 350.565 102.068C351.237 99.1564 351.461 97.8124 351.909 94.9004C352.133 92.8844 351.013 91.7643 351.237 91.5404C353.253 89.7483 364.229 94.0044 363.333 100.724C362.437 108.34 360.421 115.732 357.733 123.124C359.525 119.092 375.877 101.62 381.029 99.8284C383.269 99.1564 390.213 103.188 392.677 106.996C394.693 110.356 391.109 133.428 389.541 139.924C391.781 139.252 394.021 138.132 395.589 137.684C400.517 135.892 406.341 133.428 410.149 130.068Z"/>
</mask>
<path d="M118.631 1.50835C124.455 2.62834 131.399 5.09235 131.847 11.8123C132.519 20.9963 124.679 30.4043 119.303 36.9003C117.063 39.3644 106.983 34.2124 107.431 33.7643C112.359 27.9404 123.335 15.1723 119.527 6.43635C119.303 6.21235 119.079 5.76434 118.855 5.54035C117.511 5.54035 115.719 5.76434 115.271 5.76434C109.223 7.33235 103.623 10.4684 98.2471 13.3804C74.7271 26.1483 55.4631 43.6203 37.9911 63.5563C28.8071 74.0844 10.8871 98.9484 28.3591 109.476C33.7351 112.836 40.4551 114.404 46.5031 115.524C54.5671 117.316 62.6311 118.436 70.6951 120.004C73.3831 120.452 76.0711 120.9 78.7591 121.572C83.0151 117.092 87.4951 112.612 92.1991 108.58C94.2151 106.564 104.519 111.268 103.399 112.164C99.1431 115.972 94.8871 120.228 90.6311 124.484C91.7511 124.708 92.6471 124.932 93.7671 125.38C99.1431 127.172 105.415 129.412 109.447 133.892C117.511 142.628 107.431 154.052 100.711 160.1C85.9271 173.54 64.8711 180.932 45.1591 182.948C41.7991 183.396 32.3911 183.172 31.4951 178.692C31.0471 175.78 34.8551 171.524 36.4231 169.508C44.9351 157.412 55.2391 146.436 65.3191 135.684C69.1271 131.652 72.7111 127.844 76.2951 124.036C73.3831 123.364 70.2471 122.916 67.3351 122.468C51.8791 119.78 35.0791 117.764 20.7431 110.372C15.1431 107.236 9.7671 103.204 9.0951 96.2604C8.1991 87.0764 13.7991 77.2204 18.9511 69.8283C24.7751 61.3163 32.1671 53.7004 39.5591 46.0843C47.1751 38.2444 55.4631 30.6283 64.4231 23.9083C74.0551 16.9643 84.3591 10.6923 94.8871 5.76434C102.503 2.18035 110.343 -0.0596477 118.631 1.50835ZM89.0631 126.948C88.8391 126.948 88.6151 126.948 88.3911 126.724C82.7911 132.548 77.1911 138.596 71.8151 144.644C65.7671 151.14 59.9431 157.636 54.5671 164.356C51.2071 168.388 47.3991 172.644 45.1591 177.348C46.7271 177.124 48.5191 176.676 50.3111 176.228C60.6151 173.54 70.9191 169.508 79.8791 163.684C87.4951 158.756 104.071 146.66 100.039 135.46C98.4711 130.756 93.3191 128.292 89.0631 126.948Z" fill="#F4C6B2"/>
<path d="M198.884 130.98C200.676 128.068 209.86 133.892 208.964 135.46C202.02 146.436 191.268 156.292 177.156 154.5C171.332 153.828 164.164 150.916 161.252 145.764C156.772 150.468 150.948 158.308 145.348 161.444C139.076 164.804 133.7 165.7 127.204 162.34C122.5 159.876 119.812 153.38 119.364 147.78C118.692 135.46 126.084 122.244 134.82 113.956C144.452 105.22 158.116 104.996 168.42 112.836C174.244 117.54 173.572 122.916 170.66 128.068C167.076 134.34 165.732 151.14 176.708 148.228C186.116 145.764 193.956 139.044 198.884 130.98ZM131.012 157.86C139.748 156.068 147.14 146.884 152.516 138.372C149.828 136.804 148.036 135.012 148.932 134.34C153.412 130.98 157.892 126.724 160.356 121.572C161.7 119.108 162.82 115.972 161.476 114.18C160.132 112.836 156.324 113.732 154.756 114.404C144.452 117.988 137.732 128.964 133.924 138.82C131.908 143.748 130.34 152.484 131.012 157.86Z" fill="#F4C6B2"/>
<path d="M289.65 130.98C292.114 131.652 291.666 132.772 289.874 133.892C287.634 135.46 283.826 135.46 281.362 134.788C273.298 132.996 265.234 132.1 257.394 132.772C252.466 140.388 245.97 147.332 239.026 153.38C231.634 160.324 222.674 166.372 212.594 168.164C206.546 169.284 196.466 167.94 196.242 162.34C192.434 163.236 187.282 162.564 187.954 160.548C191.986 149.572 195.794 138.372 199.378 127.172C208.114 101.412 216.402 75.2044 223.794 48.9963C226.706 39.1404 229.394 29.0604 231.634 18.7563C232.082 16.0683 232.754 13.1563 232.978 10.2444C232.978 10.0203 233.202 9.34835 232.754 9.34835C231.41 8.67635 229.842 8.45235 230.738 7.55635C233.426 4.64435 243.058 2.62834 245.97 5.76434C247.538 7.33235 246.866 10.2444 246.642 12.2604C245.298 21.8924 242.386 31.7483 239.698 41.1564C235.89 55.2683 231.634 69.3804 227.378 83.2684C222.674 98.2764 217.97 113.284 212.818 128.292C219.538 121.572 227.154 114.852 235.89 111.268C242.834 108.132 253.138 106.564 259.41 112.164C264.338 116.42 262.546 122.916 260.082 128.068C269.938 127.62 280.018 128.74 289.65 130.98ZM230.738 122.916C222.898 129.636 215.058 137.924 209.01 146.884C211.698 144.644 214.386 142.852 217.074 141.06C226.482 135.012 237.01 131.204 247.762 129.188C248.658 127.844 249.106 126.276 249.778 124.708C250.45 122.244 250.898 119.332 249.778 116.868C248.882 114.852 246.418 112.612 243.954 113.732C242.386 114.404 240.818 115.3 239.25 116.196C236.338 118.212 233.426 120.452 230.738 122.916ZM222.45 157.412C230.066 151.588 238.802 143.748 244.626 134.788C236.786 136.804 229.17 140.612 222.226 146.212C217.97 149.572 211.922 154.276 210.354 159.876C209.906 161.444 210.13 164.132 212.146 163.46C215.73 161.892 219.314 159.652 222.45 157.412Z" fill="#F4C6B2"/>
<path d="M351.388 130.084C354.524 126.052 362.588 132.772 359.004 137.028C355.644 141.06 350.94 144.644 346.236 146.66C339.516 149.348 332.796 149.796 325.852 148.004C324.06 151.364 322.044 154.276 319.58 156.74C314.652 161.892 307.036 164.804 299.868 163.908C291.58 163.012 281.724 159.876 280.828 150.468C279.708 140.836 283.964 128.964 289.34 121.124C295.388 112.388 305.468 109.028 315.548 110.148C315.996 109.924 316.22 109.7 316.668 109.7C319.58 108.804 322.716 109.924 325.404 110.596C327.868 111.492 331.452 112.164 332.796 114.628C334.812 118.436 333.468 124.708 332.796 128.74C331.676 134.116 329.884 139.716 327.42 145.092C333.468 145.988 346.908 136.132 351.388 130.084ZM319.356 124.484C318.684 126.948 318.684 129.86 318.908 132.772C320.028 129.86 320.7 126.948 321.148 123.812C321.372 122.692 321.82 120.676 322.044 118.66C320.7 120.452 319.804 122.244 319.356 124.484ZM303.004 157.188C308.156 154.052 311.964 148.9 314.652 143.524C311.964 141.732 309.948 139.268 308.604 135.908C307.036 131.652 306.588 126.5 307.26 122.02C307.708 120.452 308.156 118.884 309.052 117.092C308.156 117.764 307.26 118.212 306.588 118.884C302.556 122.02 299.644 126.5 297.628 131.204C294.044 138.596 288.892 152.708 294.94 160.1C297.852 159.652 300.54 158.532 303.004 157.188Z" fill="#F4C6B2"/>
<path d="M418.149 128.068C421.061 125.38 427.333 133.444 425.765 135.012C419.045 142.628 399.333 146.66 390.821 139.716C387.237 136.804 387.013 134.788 388.133 130.308C391.045 120.004 391.269 112.164 391.493 111.492C379.621 116.868 357.669 147.78 352.517 169.284C352.517 169.732 343.333 165.252 343.333 161.22C343.333 156.964 344.901 152.484 345.797 148.452C347.589 141.508 349.605 134.564 351.397 127.62C353.189 120.9 356.997 106.788 358.565 100.068C359.237 97.1564 359.461 95.8124 359.909 92.9004C360.133 90.8844 359.013 89.7643 359.237 89.5404C361.253 87.7483 372.229 92.0044 371.333 98.7244C370.437 106.34 368.421 113.732 365.733 121.124C367.525 117.092 383.877 99.6204 389.029 97.8284C391.269 97.1564 398.213 101.188 400.677 104.996C402.693 108.356 399.109 131.428 397.541 137.924C399.781 137.252 402.021 136.132 403.589 135.684C408.517 133.892 414.341 131.428 418.149 128.068Z" fill="#F4C6B2"/>
<path d="M110.631 3.50835C116.455 4.62834 123.399 7.09235 123.847 13.8123C124.519 22.9963 116.679 32.4043 111.303 38.9003C109.063 41.3644 98.9831 36.2124 99.4311 35.7643C104.359 29.9404 115.335 17.1723 111.527 8.43635C111.303 8.21235 111.079 7.76434 110.855 7.54035C109.511 7.54035 107.719 7.76434 107.271 7.76434C101.223 9.33235 95.6231 12.4684 90.2471 15.3804C66.7271 28.1483 47.4631 45.6203 29.9911 65.5563C20.8071 76.0843 2.8871 100.948 20.3591 111.476C25.7351 114.836 32.4551 116.404 38.5031 117.524C46.5671 119.316 54.6311 120.436 62.6951 122.004C65.3831 122.452 68.0711 122.9 70.7591 123.572C75.0151 119.092 79.4951 114.612 84.1991 110.58C86.2151 108.564 96.5191 113.268 95.3991 114.164C91.1431 117.972 86.8871 122.228 82.6311 126.484C83.7511 126.708 84.6471 126.932 85.7671 127.38C91.1431 129.172 97.4151 131.412 101.447 135.892C109.511 144.628 99.4311 156.052 92.7111 162.1C77.9271 175.54 56.8711 182.932 37.1591 184.948C33.7991 185.396 24.3911 185.172 23.4951 180.692C23.0471 177.78 26.8551 173.524 28.4231 171.508C36.9351 159.412 47.2391 148.436 57.3191 137.684C61.1271 133.652 64.7111 129.844 68.2951 126.036C65.3831 125.364 62.2471 124.916 59.3351 124.468C43.8791 121.78 27.0791 119.764 12.7431 112.372C7.1431 109.236 1.7671 105.204 1.0951 98.2604C0.199103 89.0764 5.7991 79.2204 10.9511 71.8283C16.7751 63.3163 24.1671 55.7004 31.5591 48.0843C39.1751 40.2444 47.4631 32.6283 56.4231 25.9083C66.0551 18.9643 76.3591 12.6923 86.8871 7.76434C94.5031 4.18035 102.343 1.94035 110.631 3.50835ZM81.0631 128.948C80.8391 128.948 80.6151 128.948 80.3911 128.724C74.7911 134.548 69.1911 140.596 63.8151 146.644C57.7671 153.14 51.9431 159.636 46.5671 166.356C43.2071 170.388 39.3991 174.644 37.1591 179.348C38.7271 179.124 40.5191 178.676 42.3111 178.228C52.6151 175.54 62.9191 171.508 71.8791 165.684C79.4951 160.756 96.0711 148.66 92.0391 137.46C90.4711 132.756 85.3191 130.292 81.0631 128.948Z" fill="#E4703E"/>
<path d="M190.884 132.98C192.676 130.068 201.86 135.892 200.964 137.46C194.02 148.436 183.268 158.292 169.156 156.5C163.332 155.828 156.164 152.916 153.252 147.764C148.772 152.468 142.948 160.308 137.348 163.444C131.076 166.804 125.7 167.7 119.204 164.34C114.5 161.876 111.812 155.38 111.364 149.78C110.692 137.46 118.084 124.244 126.82 115.956C136.452 107.22 150.116 106.996 160.42 114.836C166.244 119.54 165.572 124.916 162.66 130.068C159.076 136.34 157.732 153.14 168.708 150.228C178.116 147.764 185.956 141.044 190.884 132.98ZM123.012 159.86C131.748 158.068 139.14 148.884 144.516 140.372C141.828 138.804 140.036 137.012 140.932 136.34C145.412 132.98 149.892 128.724 152.356 123.572C153.7 121.108 154.82 117.972 153.476 116.18C152.132 114.836 148.324 115.732 146.756 116.404C136.452 119.988 129.732 130.964 125.924 140.82C123.908 145.748 122.34 154.484 123.012 159.86Z" fill="#E4703E"/>
<path d="M281.65 132.98C284.114 133.652 283.666 134.772 281.874 135.892C279.634 137.46 275.826 137.46 273.362 136.788C265.298 134.996 257.234 134.1 249.394 134.772C244.466 142.388 237.97 149.332 231.026 155.38C223.634 162.324 214.674 168.372 204.594 170.164C198.546 171.284 188.466 169.94 188.242 164.34C184.434 165.236 179.282 164.564 179.954 162.548C183.986 151.572 187.794 140.372 191.378 129.172C200.114 103.412 208.402 77.2044 215.794 50.9963C218.706 41.1404 221.394 31.0604 223.634 20.7563C224.082 18.0683 224.754 15.1563 224.978 12.2444C224.978 12.0203 225.202 11.3484 224.754 11.3484C223.41 10.6763 221.842 10.4523 222.738 9.55635C225.426 6.64435 235.058 4.62834 237.97 7.76434C239.538 9.33235 238.866 12.2444 238.642 14.2604C237.298 23.8924 234.386 33.7483 231.698 43.1564C227.89 57.2683 223.634 71.3804 219.378 85.2684C214.674 100.276 209.97 115.284 204.818 130.292C211.538 123.572 219.154 116.852 227.89 113.268C234.834 110.132 245.138 108.564 251.41 114.164C256.338 118.42 254.546 124.916 252.082 130.068C261.938 129.62 272.018 130.74 281.65 132.98ZM222.738 124.916C214.898 131.636 207.058 139.924 201.01 148.884C203.698 146.644 206.386 144.852 209.074 143.06C218.482 137.012 229.01 133.204 239.762 131.188C240.658 129.844 241.106 128.276 241.778 126.708C242.45 124.244 242.898 121.332 241.778 118.868C240.882 116.852 238.418 114.612 235.954 115.732C234.386 116.404 232.818 117.3 231.25 118.196C228.338 120.212 225.426 122.452 222.738 124.916ZM214.45 159.412C222.066 153.588 230.802 145.748 236.626 136.788C228.786 138.804 221.17 142.612 214.226 148.212C209.97 151.572 203.922 156.276 202.354 161.876C201.906 163.444 202.13 166.132 204.146 165.46C207.73 163.892 211.314 161.652 214.45 159.412Z" fill="#E4703E"/>
<path d="M343.388 132.084C346.524 128.052 354.588 134.772 351.004 139.028C347.644 143.06 342.94 146.644 338.236 148.66C331.516 151.348 324.796 151.796 317.852 150.004C316.06 153.364 314.044 156.276 311.58 158.74C306.652 163.892 299.036 166.804 291.868 165.908C283.58 165.012 273.724 161.876 272.828 152.468C271.708 142.836 275.964 130.964 281.34 123.124C287.388 114.388 297.468 111.028 307.548 112.148C307.996 111.924 308.22 111.7 308.668 111.7C311.58 110.804 314.716 111.924 317.404 112.596C319.868 113.492 323.452 114.164 324.796 116.628C326.812 120.436 325.468 126.708 324.796 130.74C323.676 136.116 321.884 141.716 319.42 147.092C325.468 147.988 338.908 138.132 343.388 132.084ZM311.356 126.484C310.684 128.948 310.684 131.86 310.908 134.772C312.028 131.86 312.7 128.948 313.148 125.812C313.372 124.692 313.82 122.676 314.044 120.66C312.7 122.452 311.804 124.244 311.356 126.484ZM295.004 159.188C300.156 156.052 303.964 150.9 306.652 145.524C303.964 143.732 301.948 141.268 300.604 137.908C299.036 133.652 298.588 128.5 299.26 124.02C299.708 122.452 300.156 120.884 301.052 119.092C300.156 119.764 299.26 120.212 298.588 120.884C294.556 124.02 291.644 128.5 289.628 133.204C286.044 140.596 280.892 154.708 286.94 162.1C289.852 161.652 292.54 160.532 295.004 159.188Z" fill="#E4703E"/>
<path d="M410.149 130.068C413.061 127.38 419.333 135.444 417.765 137.012C411.045 144.628 391.333 148.66 382.821 141.716C379.237 138.804 379.013 136.788 380.133 132.308C383.045 122.004 383.269 114.164 383.493 113.492C371.621 118.868 349.669 149.78 344.517 171.284C344.517 171.732 335.333 167.252 335.333 163.22C335.333 158.964 336.901 154.484 337.797 150.452C339.589 143.508 341.605 136.564 343.397 129.62C345.189 122.9 348.997 108.788 350.565 102.068C351.237 99.1564 351.461 97.8124 351.909 94.9004C352.133 92.8844 351.013 91.7643 351.237 91.5404C353.253 89.7483 364.229 94.0044 363.333 100.724C362.437 108.34 360.421 115.732 357.733 123.124C359.525 119.092 375.877 101.62 381.029 99.8284C383.269 99.1564 390.213 103.188 392.677 106.996C394.693 110.356 391.109 133.428 389.541 139.924C391.781 139.252 394.021 138.132 395.589 137.684C400.517 135.892 406.341 133.428 410.149 130.068Z" fill="#E4703E"/>
<path d="M118.631 1.50835C124.455 2.62834 131.399 5.09235 131.847 11.8123C132.519 20.9963 124.679 30.4043 119.303 36.9003C117.063 39.3644 106.983 34.2124 107.431 33.7643C112.359 27.9404 123.335 15.1723 119.527 6.43635C119.303 6.21235 119.079 5.76434 118.855 5.54035C117.511 5.54035 115.719 5.76434 115.271 5.76434C109.223 7.33235 103.623 10.4684 98.2471 13.3804C74.7271 26.1483 55.4631 43.6203 37.9911 63.5563C28.8071 74.0844 10.8871 98.9484 28.3591 109.476C33.7351 112.836 40.4551 114.404 46.5031 115.524C54.5671 117.316 62.6311 118.436 70.6951 120.004C73.3831 120.452 76.0711 120.9 78.7591 121.572C83.0151 117.092 87.4951 112.612 92.1991 108.58C94.2151 106.564 104.519 111.268 103.399 112.164C99.1431 115.972 94.8871 120.228 90.6311 124.484C91.7511 124.708 92.6471 124.932 93.7671 125.38C99.1431 127.172 105.415 129.412 109.447 133.892C117.511 142.628 107.431 154.052 100.711 160.1C85.9271 173.54 64.8711 180.932 45.1591 182.948C41.7991 183.396 32.3911 183.172 31.4951 178.692C31.0471 175.78 34.8551 171.524 36.4231 169.508C44.9351 157.412 55.2391 146.436 65.3191 135.684C69.1271 131.652 72.7111 127.844 76.2951 124.036C73.3831 123.364 70.2471 122.916 67.3351 122.468C51.8791 119.78 35.0791 117.764 20.7431 110.372C15.1431 107.236 9.7671 103.204 9.0951 96.2604C8.1991 87.0764 13.7991 77.2204 18.9511 69.8283C24.7751 61.3163 32.1671 53.7004 39.5591 46.0843C47.1751 38.2444 55.4631 30.6283 64.4231 23.9083C74.0551 16.9643 84.3591 10.6923 94.8871 5.76434C102.503 2.18035 110.343 -0.0596477 118.631 1.50835ZM89.0631 126.948C88.8391 126.948 88.6151 126.948 88.3911 126.724C82.7911 132.548 77.1911 138.596 71.8151 144.644C65.7671 151.14 59.9431 157.636 54.5671 164.356C51.2071 168.388 47.3991 172.644 45.1591 177.348C46.7271 177.124 48.5191 176.676 50.3111 176.228C60.6151 173.54 70.9191 169.508 79.8791 163.684C87.4951 158.756 104.071 146.66 100.039 135.46C98.4711 130.756 93.3191 128.292 89.0631 126.948Z" stroke="#F4C6B2" stroke-width="2" mask="url(#path-1-outside-1_4123_6568)"/>
<path d="M198.884 130.98C200.676 128.068 209.86 133.892 208.964 135.46C202.02 146.436 191.268 156.292 177.156 154.5C171.332 153.828 164.164 150.916 161.252 145.764C156.772 150.468 150.948 158.308 145.348 161.444C139.076 164.804 133.7 165.7 127.204 162.34C122.5 159.876 119.812 153.38 119.364 147.78C118.692 135.46 126.084 122.244 134.82 113.956C144.452 105.22 158.116 104.996 168.42 112.836C174.244 117.54 173.572 122.916 170.66 128.068C167.076 134.34 165.732 151.14 176.708 148.228C186.116 145.764 193.956 139.044 198.884 130.98ZM131.012 157.86C139.748 156.068 147.14 146.884 152.516 138.372C149.828 136.804 148.036 135.012 148.932 134.34C153.412 130.98 157.892 126.724 160.356 121.572C161.7 119.108 162.82 115.972 161.476 114.18C160.132 112.836 156.324 113.732 154.756 114.404C144.452 117.988 137.732 128.964 133.924 138.82C131.908 143.748 130.34 152.484 131.012 157.86Z" stroke="#F4C6B2" stroke-width="2" mask="url(#path-1-outside-1_4123_6568)"/>
<path d="M289.65 130.98C292.114 131.652 291.666 132.772 289.874 133.892C287.634 135.46 283.826 135.46 281.362 134.788C273.298 132.996 265.234 132.1 257.394 132.772C252.466 140.388 245.97 147.332 239.026 153.38C231.634 160.324 222.674 166.372 212.594 168.164C206.546 169.284 196.466 167.94 196.242 162.34C192.434 163.236 187.282 162.564 187.954 160.548C191.986 149.572 195.794 138.372 199.378 127.172C208.114 101.412 216.402 75.2044 223.794 48.9963C226.706 39.1404 229.394 29.0604 231.634 18.7563C232.082 16.0683 232.754 13.1563 232.978 10.2444C232.978 10.0203 233.202 9.34835 232.754 9.34835C231.41 8.67635 229.842 8.45235 230.738 7.55635C233.426 4.64435 243.058 2.62834 245.97 5.76434C247.538 7.33235 246.866 10.2444 246.642 12.2604C245.298 21.8924 242.386 31.7483 239.698 41.1564C235.89 55.2683 231.634 69.3804 227.378 83.2684C222.674 98.2764 217.97 113.284 212.818 128.292C219.538 121.572 227.154 114.852 235.89 111.268C242.834 108.132 253.138 106.564 259.41 112.164C264.338 116.42 262.546 122.916 260.082 128.068C269.938 127.62 280.018 128.74 289.65 130.98ZM230.738 122.916C222.898 129.636 215.058 137.924 209.01 146.884C211.698 144.644 214.386 142.852 217.074 141.06C226.482 135.012 237.01 131.204 247.762 129.188C248.658 127.844 249.106 126.276 249.778 124.708C250.45 122.244 250.898 119.332 249.778 116.868C248.882 114.852 246.418 112.612 243.954 113.732C242.386 114.404 240.818 115.3 239.25 116.196C236.338 118.212 233.426 120.452 230.738 122.916ZM222.45 157.412C230.066 151.588 238.802 143.748 244.626 134.788C236.786 136.804 229.17 140.612 222.226 146.212C217.97 149.572 211.922 154.276 210.354 159.876C209.906 161.444 210.13 164.132 212.146 163.46C215.73 161.892 219.314 159.652 222.45 157.412Z" stroke="#F4C6B2" stroke-width="2" mask="url(#path-1-outside-1_4123_6568)"/>
<path d="M351.388 130.084C354.524 126.052 362.588 132.772 359.004 137.028C355.644 141.06 350.94 144.644 346.236 146.66C339.516 149.348 332.796 149.796 325.852 148.004C324.06 151.364 322.044 154.276 319.58 156.74C314.652 161.892 307.036 164.804 299.868 163.908C291.58 163.012 281.724 159.876 280.828 150.468C279.708 140.836 283.964 128.964 289.34 121.124C295.388 112.388 305.468 109.028 315.548 110.148C315.996 109.924 316.22 109.7 316.668 109.7C319.58 108.804 322.716 109.924 325.404 110.596C327.868 111.492 331.452 112.164 332.796 114.628C334.812 118.436 333.468 124.708 332.796 128.74C331.676 134.116 329.884 139.716 327.42 145.092C333.468 145.988 346.908 136.132 351.388 130.084ZM319.356 124.484C318.684 126.948 318.684 129.86 318.908 132.772C320.028 129.86 320.7 126.948 321.148 123.812C321.372 122.692 321.82 120.676 322.044 118.66C320.7 120.452 319.804 122.244 319.356 124.484ZM303.004 157.188C308.156 154.052 311.964 148.9 314.652 143.524C311.964 141.732 309.948 139.268 308.604 135.908C307.036 131.652 306.588 126.5 307.26 122.02C307.708 120.452 308.156 118.884 309.052 117.092C308.156 117.764 307.26 118.212 306.588 118.884C302.556 122.02 299.644 126.5 297.628 131.204C294.044 138.596 288.892 152.708 294.94 160.1C297.852 159.652 300.54 158.532 303.004 157.188Z" stroke="#F4C6B2" stroke-width="2" mask="url(#path-1-outside-1_4123_6568)"/>
<path d="M418.149 128.068C421.061 125.38 427.333 133.444 425.765 135.012C419.045 142.628 399.333 146.66 390.821 139.716C387.237 136.804 387.013 134.788 388.133 130.308C391.045 120.004 391.269 112.164 391.493 111.492C379.621 116.868 357.669 147.78 352.517 169.284C352.517 169.732 343.333 165.252 343.333 161.22C343.333 156.964 344.901 152.484 345.797 148.452C347.589 141.508 349.605 134.564 351.397 127.62C353.189 120.9 356.997 106.788 358.565 100.068C359.237 97.1564 359.461 95.8124 359.909 92.9004C360.133 90.8844 359.013 89.7643 359.237 89.5404C361.253 87.7483 372.229 92.0044 371.333 98.7244C370.437 106.34 368.421 113.732 365.733 121.124C367.525 117.092 383.877 99.6204 389.029 97.8284C391.269 97.1564 398.213 101.188 400.677 104.996C402.693 108.356 399.109 131.428 397.541 137.924C399.781 137.252 402.021 136.132 403.589 135.684C408.517 133.892 414.341 131.428 418.149 128.068Z" stroke="#F4C6B2" stroke-width="2" mask="url(#path-1-outside-1_4123_6568)"/>
<path d="M110.631 3.50835C116.455 4.62834 123.399 7.09235 123.847 13.8123C124.519 22.9963 116.679 32.4043 111.303 38.9003C109.063 41.3644 98.9831 36.2124 99.4311 35.7643C104.359 29.9404 115.335 17.1723 111.527 8.43635C111.303 8.21235 111.079 7.76434 110.855 7.54035C109.511 7.54035 107.719 7.76434 107.271 7.76434C101.223 9.33235 95.6231 12.4684 90.2471 15.3804C66.7271 28.1483 47.4631 45.6203 29.9911 65.5563C20.8071 76.0843 2.8871 100.948 20.3591 111.476C25.7351 114.836 32.4551 116.404 38.5031 117.524C46.5671 119.316 54.6311 120.436 62.6951 122.004C65.3831 122.452 68.0711 122.9 70.7591 123.572C75.0151 119.092 79.4951 114.612 84.1991 110.58C86.2151 108.564 96.5191 113.268 95.3991 114.164C91.1431 117.972 86.8871 122.228 82.6311 126.484C83.7511 126.708 84.6471 126.932 85.7671 127.38C91.1431 129.172 97.4151 131.412 101.447 135.892C109.511 144.628 99.4311 156.052 92.7111 162.1C77.9271 175.54 56.8711 182.932 37.1591 184.948C33.7991 185.396 24.3911 185.172 23.4951 180.692C23.0471 177.78 26.8551 173.524 28.4231 171.508C36.9351 159.412 47.2391 148.436 57.3191 137.684C61.1271 133.652 64.7111 129.844 68.2951 126.036C65.3831 125.364 62.2471 124.916 59.3351 124.468C43.8791 121.78 27.0791 119.764 12.7431 112.372C7.1431 109.236 1.7671 105.204 1.0951 98.2604C0.199103 89.0764 5.7991 79.2204 10.9511 71.8283C16.7751 63.3163 24.1671 55.7004 31.5591 48.0843C39.1751 40.2444 47.4631 32.6283 56.4231 25.9083C66.0551 18.9643 76.3591 12.6923 86.8871 7.76434C94.5031 4.18035 102.343 1.94035 110.631 3.50835ZM81.0631 128.948C80.8391 128.948 80.6151 128.948 80.3911 128.724C74.7911 134.548 69.1911 140.596 63.8151 146.644C57.7671 153.14 51.9431 159.636 46.5671 166.356C43.2071 170.388 39.3991 174.644 37.1591 179.348C38.7271 179.124 40.5191 178.676 42.3111 178.228C52.6151 175.54 62.9191 171.508 71.8791 165.684C79.4951 160.756 96.0711 148.66 92.0391 137.46C90.4711 132.756 85.3191 130.292 81.0631 128.948Z" stroke="#F4C6B2" stroke-width="2" mask="url(#path-1-outside-1_4123_6568)"/>
<path d="M190.884 132.98C192.676 130.068 201.86 135.892 200.964 137.46C194.02 148.436 183.268 158.292 169.156 156.5C163.332 155.828 156.164 152.916 153.252 147.764C148.772 152.468 142.948 160.308 137.348 163.444C131.076 166.804 125.7 167.7 119.204 164.34C114.5 161.876 111.812 155.38 111.364 149.78C110.692 137.46 118.084 124.244 126.82 115.956C136.452 107.22 150.116 106.996 160.42 114.836C166.244 119.54 165.572 124.916 162.66 130.068C159.076 136.34 157.732 153.14 168.708 150.228C178.116 147.764 185.956 141.044 190.884 132.98ZM123.012 159.86C131.748 158.068 139.14 148.884 144.516 140.372C141.828 138.804 140.036 137.012 140.932 136.34C145.412 132.98 149.892 128.724 152.356 123.572C153.7 121.108 154.82 117.972 153.476 116.18C152.132 114.836 148.324 115.732 146.756 116.404C136.452 119.988 129.732 130.964 125.924 140.82C123.908 145.748 122.34 154.484 123.012 159.86Z" stroke="#F4C6B2" stroke-width="2" mask="url(#path-1-outside-1_4123_6568)"/>
<path d="M281.65 132.98C284.114 133.652 283.666 134.772 281.874 135.892C279.634 137.46 275.826 137.46 273.362 136.788C265.298 134.996 257.234 134.1 249.394 134.772C244.466 142.388 237.97 149.332 231.026 155.38C223.634 162.324 214.674 168.372 204.594 170.164C198.546 171.284 188.466 169.94 188.242 164.34C184.434 165.236 179.282 164.564 179.954 162.548C183.986 151.572 187.794 140.372 191.378 129.172C200.114 103.412 208.402 77.2044 215.794 50.9963C218.706 41.1404 221.394 31.0604 223.634 20.7563C224.082 18.0683 224.754 15.1563 224.978 12.2444C224.978 12.0203 225.202 11.3484 224.754 11.3484C223.41 10.6763 221.842 10.4523 222.738 9.55635C225.426 6.64435 235.058 4.62834 237.97 7.76434C239.538 9.33235 238.866 12.2444 238.642 14.2604C237.298 23.8924 234.386 33.7483 231.698 43.1564C227.89 57.2683 223.634 71.3804 219.378 85.2684C214.674 100.276 209.97 115.284 204.818 130.292C211.538 123.572 219.154 116.852 227.89 113.268C234.834 110.132 245.138 108.564 251.41 114.164C256.338 118.42 254.546 124.916 252.082 130.068C261.938 129.62 272.018 130.74 281.65 132.98ZM222.738 124.916C214.898 131.636 207.058 139.924 201.01 148.884C203.698 146.644 206.386 144.852 209.074 143.06C218.482 137.012 229.01 133.204 239.762 131.188C240.658 129.844 241.106 128.276 241.778 126.708C242.45 124.244 242.898 121.332 241.778 118.868C240.882 116.852 238.418 114.612 235.954 115.732C234.386 116.404 232.818 117.3 231.25 118.196C228.338 120.212 225.426 122.452 222.738 124.916ZM214.45 159.412C222.066 153.588 230.802 145.748 236.626 136.788C228.786 138.804 221.17 142.612 214.226 148.212C209.97 151.572 203.922 156.276 202.354 161.876C201.906 163.444 202.13 166.132 204.146 165.46C207.73 163.892 211.314 161.652 214.45 159.412Z" stroke="#F4C6B2" stroke-width="2" mask="url(#path-1-outside-1_4123_6568)"/>
<path d="M343.388 132.084C346.524 128.052 354.588 134.772 351.004 139.028C347.644 143.06 342.94 146.644 338.236 148.66C331.516 151.348 324.796 151.796 317.852 150.004C316.06 153.364 314.044 156.276 311.58 158.74C306.652 163.892 299.036 166.804 291.868 165.908C283.58 165.012 273.724 161.876 272.828 152.468C271.708 142.836 275.964 130.964 281.34 123.124C287.388 114.388 297.468 111.028 307.548 112.148C307.996 111.924 308.22 111.7 308.668 111.7C311.58 110.804 314.716 111.924 317.404 112.596C319.868 113.492 323.452 114.164 324.796 116.628C326.812 120.436 325.468 126.708 324.796 130.74C323.676 136.116 321.884 141.716 319.42 147.092C325.468 147.988 338.908 138.132 343.388 132.084ZM311.356 126.484C310.684 128.948 310.684 131.86 310.908 134.772C312.028 131.86 312.7 128.948 313.148 125.812C313.372 124.692 313.82 122.676 314.044 120.66C312.7 122.452 311.804 124.244 311.356 126.484ZM295.004 159.188C300.156 156.052 303.964 150.9 306.652 145.524C303.964 143.732 301.948 141.268 300.604 137.908C299.036 133.652 298.588 128.5 299.26 124.02C299.708 122.452 300.156 120.884 301.052 119.092C300.156 119.764 299.26 120.212 298.588 120.884C294.556 124.02 291.644 128.5 289.628 133.204C286.044 140.596 280.892 154.708 286.94 162.1C289.852 161.652 292.54 160.532 295.004 159.188Z" stroke="#F4C6B2" stroke-width="2" mask="url(#path-1-outside-1_4123_6568)"/>
<path d="M410.149 130.068C413.061 127.38 419.333 135.444 417.765 137.012C411.045 144.628 391.333 148.66 382.821 141.716C379.237 138.804 379.013 136.788 380.133 132.308C383.045 122.004 383.269 114.164 383.493 113.492C371.621 118.868 349.669 149.78 344.517 171.284C344.517 171.732 335.333 167.252 335.333 163.22C335.333 158.964 336.901 154.484 337.797 150.452C339.589 143.508 341.605 136.564 343.397 129.62C345.189 122.9 348.997 108.788 350.565 102.068C351.237 99.1564 351.461 97.8124 351.909 94.9004C352.133 92.8844 351.013 91.7643 351.237 91.5404C353.253 89.7483 364.229 94.0044 363.333 100.724C362.437 108.34 360.421 115.732 357.733 123.124C359.525 119.092 375.877 101.62 381.029 99.8284C383.269 99.1564 390.213 103.188 392.677 106.996C394.693 110.356 391.109 133.428 389.541 139.924C391.781 139.252 394.021 138.132 395.589 137.684C400.517 135.892 406.341 133.428 410.149 130.068Z" stroke="#F4C6B2" stroke-width="2" mask="url(#path-1-outside-1_4123_6568)"/>
</svg>
